<?xml version="1.0" encoding="utf-8"?>
<!-- Generator: Adobe Illustrator 15.1.0, SVG Export Plug-In . SVG Version: 6.00 Build 0)  -->
<!DOCTYPE svg PUBLIC "-//W3C//DTD SVG 1.1//EN" "http://www.w3.org/Graphics/SVG/1.1/DTD/svg11.dtd">
<svg version="1.1" id="Layer_1" xmlns="http://www.w3.org/2000/svg" xmlns:xlink="http://www.w3.org/1999/xlink" x="0px" y="0px"
	 width="100px" height="92.31px" viewBox="0 0 100 92.31" enable-background="new 0 0 100 92.31" xml:space="preserve">
<path fill="#010101" d="M54.842,0.02c-0.1-0.01-0.2-0.02-0.3-0.02c-2.66,0-4.5,2.155-4.5,4.814c0,2.62,1.02,4.75,5.02,4.805v0.015
	c18.999,0.26,35.618,16.489,35.618,36.408c0,20.079-16.489,36.648-36.568,36.648c-19.164,0-35.073-14.46-36.474-33.458h8.455
	L13.044,27.539L0,49.233h8C9.414,73.231,29.483,92.31,53.952,92.31C79.341,92.31,100,71.551,100,46.158
	C100,21.069,79.82,0.495,54.842,0.02z"/>
<path fill="#010101" d="M59.062,22.444c0-2.265-1.819-4.21-4.079-4.21h-0.881c-2.26,0-4.039,1.945-4.039,4.21v24.204L38.208,58.482
	c-1.75,1.75-1.66,4.59-0.005,6.33c1.66,1.76,4.569,1.76,6.319,0l13.1-13.1c0.1-0.11,0.18-0.22,0.28-0.32
	c0.72-0.745,1.159-1.755,1.159-2.87V22.444z"/>
</svg>
