<svg xmlns="http://www.w3.org/2000/svg" xmlns:xlink="http://www.w3.org/1999/xlink" version="1.1" id="Layer_1" x="0px" y="0px" width="100px" height="100px" viewBox="0 0 100 100" enable-background="new 0 0 100 100" xml:space="preserve">
<path d="M69.999,44.155v19.252c0,9.07-7.521,16.591-16.592,16.591H26.592V80c-9.07,0-16.591-7.521-16.591-16.592V36.59  C10.001,27.52,17.524,20,26.593,20h22.408h7.72h23.28l-31-20v5c0,2.762-2.239,5-5,5H26.593V9.997  c-14.662,0-26.592,11.93-26.592,26.594v26.818h-0.003C-0.001,78.071,11.928,90,26.592,90v-0.002h26.814v0.003  c14.662,0,26.592-11.93,26.592-26.594v-29.41C74.477,33.998,69.999,38.545,69.999,44.155z"/>
</svg>